<svg width="167" height="26" viewBox="0 0 167 26" fill="none" xmlns="http://www.w3.org/2000/svg">
<g clip-path="url(#clip0_87_248)">
<path d="M9.30565 16.068C9.30565 15.4442 9.10636 14.9668 8.70899 14.6349C8.31163 14.3029 7.58903 13.9496 6.54365 13.5738C4.42967 12.871 2.85854 12.1206 1.83273 11.325C0.806914 10.5308 0.294618 9.38576 0.294618 7.88995C0.294618 6.42671 0.891278 5.2441 2.0846 4.34085C3.27792 3.4376 4.79524 2.98535 6.63658 2.98535C8.57939 2.98535 10.1432 3.45138 11.3292 4.38219C12.5151 5.313 13.0886 6.62716 13.0494 8.3209L13.0274 8.39356H9.18828C9.18828 7.57049 8.96942 6.97292 8.53293 6.60085C8.09644 6.22877 7.4362 6.04336 6.55466 6.04336C5.83695 6.04336 5.27086 6.22376 4.8576 6.58331C4.44434 6.94285 4.23771 7.38633 4.23771 7.91375C4.23771 8.42488 4.45045 8.83579 4.87594 9.14272C5.30143 9.4509 6.09494 9.83675 7.25769 10.3003C9.23107 10.9004 10.7252 11.6307 11.74 12.4951C12.7536 13.3583 13.261 14.5422 13.261 16.0442C13.261 17.5789 12.6753 18.7803 11.5052 19.6472C10.3351 20.5141 8.78235 20.9488 6.84687 20.9488C4.91996 20.9488 3.2877 20.4828 1.94888 19.552C0.611288 18.6212 -0.0391693 17.1554 -4.40245e-05 15.1573L0.0231866 15.0859H3.8758C3.8758 16.1006 4.11911 16.8222 4.60695 17.2506C5.0948 17.6778 5.84184 17.8921 6.8481 17.8921C7.67462 17.8921 8.29084 17.7242 8.69676 17.3885C9.10269 17.0515 9.30565 16.6117 9.30565 16.068Z" fill="#589647"/>
<path d="M18.9023 7.72207L19.0429 9.43711C19.4403 8.81323 19.9416 8.33217 20.5468 7.99267C21.1508 7.65316 21.8441 7.48279 22.6241 7.48279C23.4115 7.48279 24.0913 7.65818 24.6599 8.0102C25.2296 8.36223 25.6588 8.89717 25.9473 9.61751C26.3373 8.93851 26.8386 8.41234 27.4512 8.04027C28.0638 7.6682 28.779 7.48279 29.5982 7.48279C30.8306 7.48279 31.8002 7.93629 32.5069 8.8433C33.2124 9.7503 33.5657 11.1471 33.5657 13.0338V20.6958H29.5982V13.0338C29.5982 12.1068 29.471 11.4691 29.2179 11.1208C28.9649 10.7726 28.5834 10.5997 28.0772 10.5997C27.6945 10.5997 27.3571 10.6698 27.0648 10.8089C26.7726 10.9492 26.5244 11.1434 26.3215 11.3902C26.3215 11.5267 26.3251 11.6445 26.3337 11.7435C26.341 11.8437 26.3459 11.9414 26.3459 12.0379V20.6958H22.3906V13.0338C22.3906 12.098 22.2659 11.4591 22.0165 11.1158C21.767 10.7726 21.3807 10.5997 20.8574 10.5997C20.4979 10.5997 20.1727 10.6698 19.8805 10.8089C19.5882 10.9492 19.34 11.1434 19.1371 11.3902V20.6958H15.1818V7.72207H18.9023Z" fill="#F34538"/>
<path d="M43.1393 20.6845C42.9913 20.4127 42.8642 20.1045 42.759 19.7613C42.6539 19.418 42.5732 19.0585 42.5194 18.6826C42.1758 19.3704 41.7528 19.9204 41.249 20.3313C40.7453 20.7422 40.0887 20.9489 39.2769 20.9489C37.9503 20.9489 36.9184 20.5994 36.1811 19.8991C35.4438 19.2 35.0746 18.2467 35.0746 17.039C35.0746 15.7524 35.5465 14.7589 36.4904 14.0586C37.4343 13.3596 38.8661 13.0088 40.7856 13.0088H42.4118V12.0855C42.4118 11.5343 42.2834 11.1109 42.0254 10.814C41.7674 10.5183 41.3737 10.3705 40.8431 10.3705C40.3822 10.3705 40.041 10.4807 39.8185 10.7C39.596 10.9205 39.4847 11.2612 39.4847 11.7247L35.6456 11.7122L35.6223 11.6408C35.5673 10.4582 36.0491 9.46849 37.0675 8.67298C38.086 7.87748 39.4297 7.48035 41.0987 7.48035C42.6673 7.48035 43.9365 7.87998 44.9085 8.67925C45.8793 9.47852 46.3659 10.6223 46.3659 12.1093V17.0014C46.3659 17.6892 46.4221 18.3281 46.5358 18.9194C46.6483 19.5107 46.8183 20.102 47.0445 20.6946L43.1393 20.6845ZM40.354 18.0587C40.8382 18.0587 41.2649 17.9435 41.6354 17.7105C42.0059 17.4787 42.2651 17.2031 42.4142 16.8836V15.1686H40.8223C40.1902 15.1686 39.7342 15.3239 39.4529 15.6359C39.1717 15.9478 39.0311 16.3437 39.0311 16.8235C39.0311 17.1918 39.1534 17.4887 39.4004 17.7167C39.6461 17.9447 39.964 18.0587 40.354 18.0587Z" fill="#4285F4"/>
<path d="M55.5322 11.176L54.2448 11.1634C53.7924 11.1634 53.4219 11.2499 53.1334 11.4215C52.8448 11.5931 52.6296 11.8349 52.4902 12.1469V20.697H48.5349V7.72207H52.2567L52.3973 9.62878C52.6626 8.94978 53.0135 8.42237 53.45 8.04654C53.8865 7.6707 54.3976 7.48279 54.9832 7.48279C55.163 7.48279 55.3231 7.49532 55.4638 7.51912C55.6044 7.54292 55.7523 7.57925 55.9088 7.62686L55.5322 11.176Z" fill="#FFCA29"/>
<path d="M61.7238 4.49622V7.7221H63.7253V10.5283H61.7238V16.4765C61.7238 16.94 61.8155 17.2745 61.9989 17.4774C62.1823 17.6816 62.4305 17.7831 62.7423 17.7831C62.9452 17.7831 63.1066 17.7756 63.2277 17.7593C63.3487 17.743 63.5027 17.7117 63.6898 17.6628L63.9588 20.6607C63.5614 20.7647 63.202 20.8386 62.8816 20.8825C62.5613 20.9263 62.1835 20.9489 61.747 20.9489C60.4436 20.9489 59.4545 20.5931 58.7808 19.8815C58.1059 19.1699 57.7685 18.0424 57.7685 16.5003V10.5283H56.0017V7.7221H57.7685V4.49622H61.7238Z" fill="#4DB051"/>
<path d="M77.7333 6.35533H73.2278V20.697H69.2725V6.35533H64.8489V3.23718H77.7333V6.35533Z" fill="#FFCA28"/>
<path d="M85.4446 20.6845C85.2966 20.4127 85.1695 20.1045 85.0643 19.7613C84.9592 19.418 84.8785 19.0585 84.8247 18.6826C84.4811 19.3704 84.0581 19.9204 83.5543 20.3313C83.0506 20.7422 82.394 20.9489 81.5822 20.9489C80.2556 20.9489 79.2237 20.5994 78.4864 19.8991C77.7491 19.2 77.3799 18.2467 77.3799 17.039C77.3799 15.7524 77.8518 14.7589 78.7957 14.0586C79.7396 13.3596 81.1714 13.0088 83.0909 13.0088H84.7171V12.0855C84.7171 11.5343 84.5887 11.1109 84.3307 10.814C84.0727 10.5183 83.679 10.3705 83.1484 10.3705C82.6875 10.3705 82.3463 10.4807 82.1238 10.7C81.9013 10.9205 81.79 11.2612 81.79 11.7247L77.9509 11.7122L77.9276 11.6408C77.8726 10.4582 78.3543 9.46849 79.3728 8.67298C80.3913 7.87748 81.735 7.48035 83.404 7.48035C84.9726 7.48035 86.2418 7.87998 87.2138 8.67925C88.1846 9.47852 88.6712 10.6223 88.6712 12.1093V17.0014C88.6712 17.6892 88.7274 18.3281 88.8411 18.9194C88.9536 19.5107 89.1236 20.102 89.3498 20.6946L85.4446 20.6845ZM82.6593 18.0587C83.1435 18.0587 83.5702 17.9435 83.9407 17.7105C84.3112 17.4787 84.5704 17.2031 84.7195 16.8836V15.1686H83.1276C82.4955 15.1686 82.0395 15.3239 81.7582 15.6359C81.477 15.9478 81.3364 16.3437 81.3364 16.8235C81.3364 17.1918 81.4587 17.4887 81.7057 17.7167C81.9514 17.9447 82.2693 18.0587 82.6593 18.0587Z" fill="#F44336"/>
<path d="M90.3022 14.234C90.3022 12.212 90.7326 10.5809 91.5958 9.3419C92.4578 8.10291 93.6731 7.48279 95.2418 7.48279C95.9045 7.48279 96.4901 7.6444 96.9976 7.96886C97.505 8.29208 97.9414 8.75059 98.3082 9.3419L98.5662 7.72332H102.053V20.5542C102.053 22.2642 101.482 23.5897 100.339 24.5292C99.1959 25.4688 97.6223 25.9386 95.6172 25.9386C94.9618 25.9386 94.2747 25.8472 93.557 25.663C92.8393 25.4788 92.1521 25.2308 91.4968 24.9201L92.1754 21.9222C92.7451 22.1778 93.2892 22.3682 93.8076 22.4922C94.326 22.6163 94.9215 22.6776 95.5927 22.6776C96.4351 22.6776 97.0611 22.506 97.4707 22.1615C97.8803 21.8182 98.0845 21.2745 98.0845 20.5304V19.5232C97.725 19.9955 97.3106 20.35 96.8386 20.5905C96.3667 20.8298 95.8262 20.9501 95.2174 20.9501C93.6572 20.9501 92.448 20.3588 91.5897 19.1749C90.7314 17.9923 90.3022 16.4288 90.3022 14.4858V14.234ZM94.2466 14.4858C94.2466 15.5406 94.3969 16.3624 94.6965 16.95C94.9973 17.5375 95.5059 17.8319 96.2236 17.8319C96.6528 17.8319 97.0208 17.7643 97.3289 17.6277C97.637 17.4924 97.8889 17.2882 98.0833 17.0164V11.5593C97.8877 11.2474 97.6382 11.0093 97.3338 10.8452C97.0293 10.6811 96.6662 10.5997 96.2456 10.5997C95.5438 10.5997 95.034 10.9342 94.7185 11.6006C94.4031 12.2684 94.2441 13.1453 94.2441 14.2327V14.4858H94.2466Z" fill="#4385F4"/>
<path d="M103.772 14.234C103.772 12.212 104.204 10.5809 105.068 9.3419C105.932 8.10291 107.149 7.48279 108.722 7.48279C109.386 7.48279 109.972 7.6444 110.481 7.96886C110.99 8.29208 111.427 8.75059 111.794 9.3419L112.052 7.72332H115.547V20.5542C115.547 22.2642 114.974 23.5897 113.829 24.5292C112.683 25.4688 111.106 25.9386 109.097 25.9386C108.44 25.9386 107.752 25.8472 107.033 25.663C106.314 25.4788 105.626 25.2308 104.969 24.9201L105.649 21.9222C106.22 22.1778 106.765 22.3682 107.285 22.4922C107.805 22.6163 108.401 22.6776 109.074 22.6776C109.919 22.6776 110.546 22.506 110.955 22.1615C111.366 21.8182 111.57 21.2745 111.57 20.5304V19.5232C111.211 19.9955 110.794 20.35 110.322 20.5905C109.849 20.8298 109.307 20.9501 108.698 20.9501C107.135 20.9501 105.923 20.3588 105.063 19.1749C104.204 17.9923 103.774 16.4288 103.774 14.4858V14.234H103.772ZM107.724 14.4858C107.724 15.5406 107.874 16.3624 108.175 16.95C108.476 17.5375 108.986 17.8319 109.706 17.8319C110.136 17.8319 110.506 17.7643 110.814 17.6277C111.123 17.4924 111.375 17.2882 111.57 17.0164V11.5593C111.375 11.2474 111.125 11.0093 110.82 10.8452C110.515 10.6811 110.151 10.5997 109.729 10.5997C109.026 10.5997 108.515 10.9342 108.198 11.6006C107.882 12.2684 107.724 13.1453 107.724 14.2327V14.4858Z" fill="#4DAF51"/>
<path d="M123.399 20.9488C121.479 20.9488 119.975 20.3537 118.887 19.1623C117.799 17.971 117.255 16.4639 117.255 14.6411V14.1851C117.255 12.2032 117.768 10.5884 118.794 9.34062C119.82 8.09412 121.304 7.474 123.247 7.48151C124.955 7.48151 126.28 8.00517 127.221 9.05249C128.161 10.0998 128.63 11.5342 128.63 13.357V15.4792H121.374L121.351 15.5506C121.413 16.2296 121.659 16.7796 122.088 17.1993C122.517 17.6189 123.133 17.8281 123.936 17.8281C124.693 17.8281 125.323 17.7643 125.827 17.6365C126.33 17.5087 126.905 17.3045 127.553 17.0251L128.501 19.4956C127.954 19.9027 127.221 20.2472 126.3 20.5266C125.379 20.8085 124.412 20.9488 123.399 20.9488ZM123.246 10.5997C122.614 10.5997 122.148 10.8051 121.847 11.2173C121.546 11.6294 121.373 12.1869 121.326 12.8897L121.349 12.9499H124.767V12.6379C124.767 11.9664 124.652 11.4591 124.422 11.1145C124.192 10.7725 123.8 10.5997 123.246 10.5997Z" fill="#FFCA29"/>
<path d="M137.302 11.176L136.014 11.1634C135.562 11.1634 135.191 11.2499 134.903 11.4215C134.614 11.5931 134.399 11.8349 134.26 12.1469V20.697H130.304V7.72207H134.026L134.167 9.62878C134.432 8.94978 134.783 8.42237 135.219 8.04654C135.656 7.6707 136.167 7.48279 136.753 7.48279C136.932 7.48279 137.092 7.49532 137.232 7.51912C137.371 7.54292 137.52 7.57925 137.677 7.62686L137.302 11.176Z" fill="#F34538"/>
<path d="M163.916 13.8982C163.915 16.5065 163.914 19.1147 163.913 21.723C163.911 22.7628 163.52 23.1649 162.505 23.1649C157.703 23.1662 152.9 23.1662 148.096 23.1649C147.002 23.1649 146.639 22.7904 146.638 21.6691C146.635 19.0797 146.634 16.4889 146.632 13.8995C146.756 13.8832 146.88 13.8506 147.004 13.8518C147.32 13.8569 147.585 13.8982 147.588 13.3946C147.589 12.8922 147.326 12.9273 147.008 12.9336C146.883 12.9361 146.759 12.9073 146.634 12.8935C146.634 10.0447 146.634 7.19588 146.636 4.34708C146.638 3.21582 146.984 2.86755 148.099 2.86755C152.901 2.86755 157.704 2.86755 162.507 2.86881C163.55 2.86881 163.91 3.23336 163.91 4.29321C163.913 7.1608 163.914 10.0271 163.915 12.8947C163.792 12.9073 163.669 12.9286 163.546 12.9323C163.252 12.9411 162.963 12.8559 162.954 13.372C162.946 13.8944 163.212 13.8694 163.548 13.8581C163.672 13.8531 163.794 13.8832 163.916 13.8982ZM151.03 13.8318C151.036 13.8067 151.048 13.7855 151.069 13.7692C151.269 13.4121 151.608 13.5975 151.888 13.5524C151.895 13.7842 152.011 13.8606 152.235 13.8594C154.259 13.8518 156.283 13.8518 158.307 13.8569C158.529 13.8581 158.648 13.7842 158.658 13.5524C158.923 13.5374 159.193 13.5913 159.451 13.4848C159.477 13.6915 159.492 13.8706 159.789 13.8606C160.456 13.8368 161.125 13.8481 161.794 13.8556C162.021 13.8581 162.087 13.7767 162.115 13.5374C162.169 13.0751 162.01 12.886 161.563 12.9448C161.592 12.5953 161.449 12.45 161.093 12.45C157.213 12.4575 153.332 12.4588 149.451 12.45C149.094 12.4487 148.955 12.5966 148.977 12.9436C148.231 12.8471 148.477 13.4084 148.445 13.7855C149.303 13.9947 150.166 13.9032 151.03 13.8318ZM155.268 11.2148C157.181 11.2148 159.094 11.2085 161.006 11.2198C161.356 11.2223 161.582 11.2035 161.57 10.7312C161.558 10.2915 161.458 10.0985 160.989 10.1111C159.907 10.1399 158.824 10.1198 157.742 10.1198C155.184 10.1198 152.626 10.1198 150.067 10.1211C149.888 10.1211 149.705 10.1211 149.527 10.1361C149.133 10.1712 148.934 10.3416 148.973 10.8039C149.012 11.2674 149.297 11.2135 149.584 11.2135C151.479 11.2148 153.375 11.2148 155.268 11.2148ZM155.25 18.2203C157.164 18.2203 159.077 18.2127 160.989 18.2265C161.371 18.229 161.579 18.1864 161.573 17.6991C161.566 17.2281 161.35 17.213 161.003 17.213C157.176 17.2205 153.35 17.2218 149.523 17.2105C149.155 17.2093 148.966 17.2594 148.968 17.7129C148.971 18.1489 149.123 18.2315 149.509 18.2278C151.423 18.2115 153.337 18.2203 155.25 18.2203ZM155.218 8.7869C157.17 8.7869 159.12 8.77813 161.071 8.79441C161.449 8.79817 161.568 8.67916 161.569 8.2908C161.57 7.84356 161.36 7.77841 160.995 7.77967C157.166 7.78718 153.337 7.78969 149.507 7.77591C149.117 7.77466 148.974 7.8636 148.971 8.29456C148.967 8.75432 149.166 8.79567 149.529 8.79316C151.426 8.77938 153.322 8.7869 155.218 8.7869ZM155.248 14.8791C153.351 14.8791 151.454 14.8816 149.557 14.8766C149.235 14.8754 148.963 14.8453 148.971 15.3414C148.978 15.8074 149.171 15.8901 149.566 15.8889C153.395 15.8788 157.225 15.8788 161.055 15.8889C161.41 15.8901 161.57 15.8174 161.57 15.4053C161.57 14.9931 161.455 14.8653 161.047 14.8703C159.114 14.8904 157.181 14.8791 155.248 14.8791ZM155.244 6.45298C157.16 6.45298 159.076 6.44923 160.992 6.45674C161.327 6.45799 161.585 6.46676 161.569 5.98069C161.555 5.56226 161.407 5.442 161.017 5.44325C157.186 5.45327 153.354 5.45327 149.522 5.44325C149.131 5.442 148.979 5.56352 148.973 5.98194C148.967 6.40538 149.151 6.4605 149.496 6.45799C151.412 6.44672 153.328 6.45298 155.244 6.45298ZM153.806 20.5554C155.231 20.5554 156.655 20.5454 158.079 20.5617C158.471 20.5667 158.661 20.5016 158.656 20.0242C158.652 19.5457 158.418 19.5457 158.079 19.5457C155.231 19.5532 152.382 19.5545 149.534 19.5444C149.181 19.5432 148.957 19.5657 148.972 20.0343C148.985 20.4627 149.155 20.5629 149.533 20.5592C150.957 20.5467 152.382 20.5554 153.806 20.5554Z" fill="#D6D6D6"/>
<path d="M155.268 11.2148C153.373 11.2148 151.479 11.2148 149.584 11.2148C149.297 11.2148 149.012 11.2687 148.973 10.8052C148.934 10.3429 149.133 10.1725 149.527 10.1374C149.707 10.1212 149.888 10.1224 150.067 10.1224C152.625 10.1212 155.183 10.1212 157.742 10.1212C158.825 10.1212 159.908 10.1412 160.989 10.1124C161.458 10.0999 161.558 10.2928 161.57 10.7325C161.582 11.2048 161.357 11.2223 161.006 11.2211C159.094 11.2086 157.182 11.2148 155.268 11.2148Z" fill="white"/>
<path d="M155.25 18.2203C153.337 18.2203 151.423 18.2103 149.511 18.2278C149.126 18.2316 148.972 18.1477 148.97 17.713C148.968 17.2595 149.158 17.2093 149.526 17.2106C153.352 17.2206 157.178 17.2194 161.005 17.2131C161.351 17.2118 161.569 17.2281 161.575 17.6992C161.581 18.1865 161.373 18.2303 160.992 18.2266C159.076 18.2128 157.164 18.2203 155.25 18.2203Z" fill="white"/>
<path d="M155.218 8.78688C153.322 8.78688 151.426 8.77936 149.528 8.79314C149.165 8.79565 148.966 8.75305 148.969 8.29454C148.973 7.86359 149.116 7.77464 149.506 7.77589C153.335 7.78967 157.165 7.78717 160.994 7.77965C161.357 7.7784 161.569 7.84354 161.568 8.29078C161.566 8.67914 161.448 8.7969 161.07 8.79439C159.12 8.77811 157.17 8.78688 155.218 8.78688Z" fill="white"/>
<path d="M155.248 14.8792C157.181 14.8792 159.114 14.8905 161.047 14.8704C161.455 14.8667 161.57 14.9945 161.57 15.4054C161.57 15.8175 161.41 15.8902 161.055 15.8889C157.226 15.8789 153.397 15.8789 149.566 15.8889C149.171 15.8902 148.978 15.8075 148.97 15.3415C148.963 14.8441 149.235 14.8755 149.557 14.8767C151.454 14.8817 153.351 14.8792 155.248 14.8792Z" fill="white"/>
<path d="M155.244 6.45298C153.328 6.45298 151.412 6.44672 149.496 6.45799C149.151 6.4605 148.966 6.40412 148.973 5.98194C148.979 5.56351 149.131 5.44199 149.522 5.44325C153.354 5.45327 157.186 5.45327 161.017 5.44325C161.407 5.44199 161.554 5.56226 161.569 5.98069C161.585 6.46676 161.327 6.45799 160.992 6.45674C159.076 6.44922 157.16 6.45298 155.244 6.45298Z" fill="white"/>
<path d="M153.806 20.5554C152.382 20.5554 150.957 20.5466 149.533 20.5617C149.155 20.5654 148.985 20.4652 148.972 20.0368C148.957 19.5682 149.181 19.5457 149.534 19.5469C152.383 19.5569 155.232 19.5557 158.079 19.5482C158.418 19.5469 158.652 19.5469 158.656 20.0267C158.661 20.504 158.471 20.5692 158.079 20.5642C156.655 20.5454 155.231 20.5554 153.806 20.5554Z" fill="white"/>
<path d="M159.451 13.4836C159.193 13.5888 158.923 13.5362 158.658 13.5512C158.704 13.0752 158.506 12.9411 158.037 12.9487C156.197 12.9787 154.355 12.9787 152.515 12.9487C152.046 12.9411 151.848 13.0777 151.888 13.5525C151.608 13.5988 151.27 13.4122 151.069 13.7705C151.036 12.9662 151.036 12.9674 150.256 12.9624C149.83 12.9599 149.403 12.9512 148.978 12.9449C148.955 12.5979 149.095 12.45 149.452 12.4513C153.333 12.4588 157.214 12.4588 161.095 12.4513C161.45 12.45 161.593 12.5954 161.564 12.9461C161.048 12.9512 160.53 12.9862 160.017 12.9512C159.602 12.9211 159.426 13.0677 159.451 13.4836Z" fill="white"/>
<path d="M162.197 0.561241C162.107 -0.129035 162.623 0.0588802 162.97 0.00125277C163.369 0.00125277 163.767 0 164.166 0C164.941 0.00751662 165.716 0.0313193 166.49 0.0175388C166.845 0.0112749 167.006 0.0901995 166.999 0.503614C166.975 1.8328 166.988 3.16325 166.994 4.49369C166.995 4.78433 166.974 4.98853 166.599 4.98352C166.221 4.97851 166.098 4.83194 166.104 4.45235C166.121 3.47393 166.085 2.49427 166.117 1.51585C166.132 1.0636 165.98 0.954611 165.562 0.967139C164.481 0.998458 163.399 0.983425 162.317 0.987183C162.184 0.873181 162.24 0.702804 162.197 0.561241Z" fill="#F44336"/>
<path d="M166.989 23.5571C166.988 24.2223 166.976 24.8888 166.994 25.554C167.004 25.8935 166.883 26.0038 166.555 26C165.256 25.985 163.957 25.9862 162.658 26C162.333 26.0038 162.218 25.896 162.211 25.5565C162.202 25.1757 162.356 25.088 162.695 25.0943C163.669 25.1105 164.644 25.0867 165.617 25.1068C165.995 25.1143 166.126 24.9765 166.118 24.5919C166.1 23.6122 166.121 22.6326 166.107 21.6529C166.103 21.3046 166.115 21.0428 166.568 21.0353C167.075 21.0278 166.989 21.3685 166.99 21.6729C166.99 22.3006 166.989 22.9295 166.989 23.5571Z" fill="#F44336"/>
<path d="M145.934 25.8897C145.266 25.891 144.597 25.8809 143.93 25.8947C143.65 25.8997 143.547 25.7958 143.548 25.5076C143.558 24.1396 143.563 22.7703 143.548 21.4023C143.544 21.029 143.722 20.9864 144.016 20.9851C144.31 20.9839 144.439 21.0753 144.436 21.3973C144.422 22.4145 144.446 23.4318 144.425 24.449C144.416 24.8537 144.535 25.0065 144.947 24.9952C145.921 24.9689 146.896 25.0002 147.87 24.979C148.233 24.9714 148.331 25.108 148.335 25.4613C148.339 25.8183 148.195 25.9022 147.882 25.8947C147.233 25.8772 146.584 25.8885 145.934 25.8897Z" fill="#F44336"/>
<path d="M143.679 5.05248C143.439 4.81446 143.624 4.49124 143.524 4.22565C143.569 3.96383 143.568 3.702 143.521 3.44017C143.532 2.49683 143.559 1.55349 143.546 0.611411C143.539 0.224305 143.661 0.100281 144.041 0.105292C145.305 0.125336 146.569 0.119073 147.835 0.105292C148.154 0.101534 148.338 0.150392 148.34 0.548773C148.341 0.928362 148.194 1.01856 147.857 1.0123C146.918 0.996012 145.977 1.00353 145.038 1.0123C144.867 1.01355 144.673 0.943396 144.53 1.11252C144.497 1.19395 144.431 1.27663 144.436 1.35556C144.521 2.58452 144.283 3.80347 144.337 5.03119C144.145 5.03996 143.952 5.04872 143.76 5.05749C143.733 5.03494 143.707 5.03369 143.679 5.05248Z" fill="#F44336"/>
<path d="M146.634 12.8948C146.759 12.9086 146.884 12.9374 147.008 12.9349C147.325 12.9286 147.589 12.8935 147.588 13.3959C147.587 13.8995 147.32 13.8582 147.005 13.8531C146.881 13.8519 146.756 13.8832 146.632 13.9008C145.753 13.892 144.873 13.8644 143.994 13.882C143.623 13.8895 143.544 13.7404 143.543 13.3971C143.543 13.0514 143.625 12.9035 143.994 12.9111C144.875 12.9261 145.755 12.9023 146.634 12.8948Z" fill="#F44336"/>
<path d="M163.916 13.8983C163.794 13.8832 163.671 13.8532 163.55 13.8569C163.212 13.8682 162.947 13.8945 162.955 13.3709C162.964 12.8547 163.254 12.9412 163.547 12.9311C163.671 12.9274 163.793 12.9073 163.916 12.8936C164.78 12.9023 165.643 12.9249 166.506 12.9111C166.889 12.9048 166.994 13.0564 167 13.4335C167.006 13.8331 166.826 13.8782 166.507 13.8757C165.644 13.8695 164.781 13.8895 163.916 13.8983Z" fill="#F44336"/>
<path d="M151.887 13.5513C151.846 13.0765 152.045 12.9399 152.514 12.9474C154.354 12.9775 156.195 12.9788 158.035 12.9474C158.505 12.9399 158.703 13.074 158.656 13.55C158.647 13.7818 158.528 13.8557 158.306 13.8544C156.282 13.8482 154.257 13.8494 152.234 13.857C152.01 13.8595 151.894 13.7843 151.887 13.5513Z" fill="#F44336"/>
<path d="M159.451 13.4836C159.425 13.0676 159.603 12.9198 160.016 12.9486C160.53 12.9837 161.047 12.9486 161.563 12.9436C162.01 12.8847 162.169 13.0752 162.115 13.5374C162.087 13.7755 162.021 13.8581 161.794 13.8556C161.125 13.8469 160.456 13.8368 159.789 13.8606C159.492 13.8707 159.477 13.6903 159.451 13.4836Z" fill="#F44336"/>
<path d="M148.977 12.9436C149.402 12.9498 149.829 12.9586 150.254 12.9611C151.034 12.9661 151.034 12.9636 151.067 13.7692C151.048 13.7854 151.034 13.8055 151.029 13.8305C150.169 13.8155 149.307 13.8005 148.446 13.7854C148.477 13.4084 148.231 12.8484 148.977 12.9436Z" fill="#F44336"/>
</g>
<defs>
<clipPath id="clip0_87_248">
<rect width="167" height="26" fill="white"/>
</clipPath>
</defs>
</svg>
