<svg width="609" height="609" viewBox="0 0 609 609" fill="none" xmlns="http://www.w3.org/2000/svg">
<rect width="609" height="609" fill="#F0F0F0"/>
<path d="M185.639 313.464C185.639 312.202 185.24 311.236 184.444 310.565C183.648 309.893 182.201 309.178 180.108 308.418C175.874 306.997 172.728 305.479 170.674 303.87C168.619 302.263 167.593 299.947 167.593 296.921C167.593 293.961 168.788 291.569 171.178 289.742C173.568 287.915 176.606 287 180.294 287C184.185 287 187.316 287.943 189.691 289.826C192.066 291.708 193.215 294.367 193.136 297.793L193.092 297.94H185.404C185.404 296.275 184.966 295.066 184.092 294.313C183.217 293.561 181.895 293.186 180.13 293.186C178.693 293.186 177.559 293.551 176.731 294.278C175.904 295.005 175.49 295.902 175.49 296.969C175.49 298.003 175.916 298.834 176.768 299.455C177.62 300.079 179.209 300.859 181.538 301.797C185.49 303.01 188.482 304.488 190.514 306.236C192.544 307.982 193.56 310.377 193.56 313.416C193.56 316.52 192.387 318.95 190.044 320.704C187.701 322.457 184.591 323.337 180.715 323.337C176.856 323.337 173.587 322.394 170.906 320.511C168.228 318.628 166.925 315.663 167.003 311.621L167.05 311.477H174.765C174.765 313.53 175.252 314.989 176.229 315.856C177.206 316.72 178.702 317.153 180.718 317.153C182.373 317.153 183.607 316.814 184.42 316.135C185.233 315.453 185.639 314.563 185.639 313.464Z" fill="#589647"/>
<path d="M204.858 296.581L205.139 300.051C205.935 298.789 206.939 297.816 208.151 297.129C209.36 296.442 210.749 296.097 212.311 296.097C213.888 296.097 215.249 296.452 216.388 297.164C217.529 297.876 218.388 298.958 218.966 300.416C219.747 299.042 220.751 297.978 221.978 297.225C223.204 296.472 224.637 296.097 226.277 296.097C228.745 296.097 230.687 297.015 232.102 298.849C233.515 300.684 234.223 303.51 234.223 307.326V322.825H226.277V307.326C226.277 305.451 226.023 304.161 225.516 303.456C225.009 302.752 224.245 302.402 223.231 302.402C222.465 302.402 221.789 302.544 221.204 302.825C220.619 303.109 220.122 303.502 219.715 304.001C219.715 304.278 219.723 304.516 219.74 304.716C219.754 304.919 219.764 305.116 219.764 305.311V322.825H211.843V307.326C211.843 305.433 211.593 304.141 211.094 303.446C210.594 302.752 209.821 302.402 208.773 302.402C208.053 302.402 207.402 302.544 206.816 302.825C206.231 303.109 205.734 303.502 205.328 304.001V322.825H197.407V296.581H204.858Z" fill="#F34538"/>
<path d="M253.395 322.802C253.098 322.252 252.844 321.628 252.633 320.934C252.423 320.24 252.261 319.512 252.153 318.752C251.465 320.143 250.618 321.256 249.609 322.087C248.601 322.918 247.286 323.336 245.66 323.336C243.003 323.336 240.937 322.629 239.46 321.213C237.984 319.799 237.244 317.87 237.244 315.428C237.244 312.825 238.189 310.815 240.08 309.399C241.97 307.985 244.837 307.275 248.681 307.275H251.938V305.408C251.938 304.293 251.681 303.436 251.164 302.836C250.647 302.237 249.859 301.938 248.796 301.938C247.873 301.938 247.19 302.161 246.745 302.605C246.299 303.051 246.076 303.74 246.076 304.678L238.388 304.652L238.341 304.508C238.231 302.116 239.196 300.114 241.235 298.505C243.275 296.896 245.966 296.092 249.308 296.092C252.45 296.092 254.991 296.901 256.938 298.517C258.882 300.134 259.856 302.448 259.856 305.456V315.351C259.856 316.743 259.969 318.035 260.197 319.231C260.422 320.427 260.762 321.623 261.215 322.822L253.395 322.802ZM247.817 317.49C248.787 317.49 249.641 317.257 250.383 316.786C251.125 316.317 251.644 315.759 251.943 315.113V311.644H248.755C247.489 311.644 246.576 311.958 246.012 312.589C245.449 313.22 245.168 314.021 245.168 314.992C245.168 315.737 245.413 316.337 245.907 316.798C246.399 317.26 247.036 317.49 247.817 317.49Z" fill="#4285F4"/>
<path d="M278.213 303.568L275.635 303.543C274.729 303.543 273.987 303.717 273.409 304.065C272.831 304.412 272.4 304.901 272.121 305.532V322.827H264.2V296.581H271.653L271.935 300.438C272.466 299.065 273.169 297.998 274.043 297.238C274.917 296.478 275.941 296.097 277.113 296.097C277.473 296.097 277.794 296.123 278.076 296.171C278.357 296.219 278.654 296.293 278.967 296.389L278.213 303.568Z" fill="#FFCA29"/>
<path d="M290.612 290.056V296.581H294.621V302.258H290.612V314.29C290.612 315.227 290.796 315.904 291.163 316.315C291.53 316.728 292.028 316.933 292.652 316.933C293.058 316.933 293.382 316.918 293.624 316.885C293.866 316.852 294.175 316.788 294.55 316.69L295.088 322.754C294.292 322.964 293.573 323.114 292.931 323.202C292.29 323.291 291.533 323.337 290.659 323.337C288.049 323.337 286.068 322.617 284.719 321.178C283.367 319.738 282.691 317.457 282.691 314.338V302.258H279.153V296.581H282.691V290.056H290.612Z" fill="#4DB051"/>
<path d="M322.673 293.817H313.65V322.827H305.729V293.817H296.871V287.509H322.673V293.817Z" fill="#FFCA28"/>
<path d="M338.116 322.802C337.82 322.252 337.565 321.628 337.355 320.934C337.144 320.24 336.982 319.512 336.875 318.752C336.187 320.143 335.339 321.256 334.331 322.087C333.322 322.918 332.007 323.336 330.381 323.336C327.725 323.336 325.658 322.629 324.181 321.213C322.705 319.799 321.966 317.87 321.966 315.428C321.966 312.825 322.911 310.815 324.801 309.399C326.691 307.985 329.558 307.275 333.403 307.275H336.659V305.408C336.659 304.293 336.402 303.436 335.885 302.836C335.369 302.237 334.58 301.938 333.518 301.938C332.595 301.938 331.911 302.161 331.466 302.605C331.02 303.051 330.797 303.74 330.797 304.678L323.109 304.652L323.063 304.508C322.952 302.116 323.917 300.114 325.957 298.505C327.996 296.896 330.687 296.092 334.029 296.092C337.171 296.092 339.712 296.901 341.659 298.517C343.603 300.134 344.578 302.448 344.578 305.456V315.351C344.578 316.743 344.69 318.035 344.918 319.231C345.143 320.427 345.484 321.623 345.937 322.822L338.116 322.802ZM332.538 317.49C333.508 317.49 334.362 317.257 335.104 316.786C335.846 316.317 336.365 315.759 336.664 315.113V311.644H333.476C332.21 311.644 331.297 311.958 330.734 312.589C330.171 313.22 329.889 314.021 329.889 314.992C329.889 315.737 330.134 316.337 330.628 316.798C331.121 317.26 331.757 317.49 332.538 317.49Z" fill="#F44336"/>
<path d="M347.844 309.754C347.844 305.664 348.706 302.364 350.435 299.858C352.161 297.352 354.595 296.097 357.736 296.097C359.063 296.097 360.236 296.424 361.252 297.081C362.268 297.734 363.142 298.662 363.877 299.858L364.394 296.584H371.377V322.538C371.377 325.997 370.233 328.678 367.944 330.579C365.655 332.48 362.503 333.43 358.488 333.43C357.175 333.43 355.799 333.245 354.362 332.872C352.925 332.5 351.549 331.998 350.236 331.37L351.595 325.306C352.736 325.822 353.826 326.208 354.864 326.459C355.902 326.709 357.095 326.834 358.439 326.834C360.126 326.834 361.379 326.486 362.2 325.79C363.02 325.095 363.429 323.995 363.429 322.49V320.453C362.709 321.408 361.879 322.125 360.934 322.612C359.989 323.096 358.906 323.339 357.687 323.339C354.563 323.339 352.141 322.143 350.422 319.748C348.703 317.356 347.844 314.193 347.844 310.263V309.754ZM355.743 310.263C355.743 312.397 356.044 314.059 356.644 315.248C357.246 316.436 358.265 317.032 359.702 317.032C360.562 317.032 361.299 316.895 361.916 316.619C362.533 316.345 363.037 315.932 363.426 315.382V304.343C363.035 303.712 362.535 303.231 361.925 302.899C361.316 302.567 360.589 302.402 359.746 302.402C358.341 302.402 357.32 303.079 356.688 304.427C356.056 305.778 355.738 307.552 355.738 309.751V310.263H355.743Z" fill="#4385F4"/>
<path d="M374.819 309.754C374.819 305.664 375.684 302.364 377.415 299.858C379.144 297.352 381.582 296.097 384.731 296.097C386.061 296.097 387.236 296.424 388.255 297.081C389.273 297.734 390.15 298.662 390.884 299.858L391.401 296.584H398.399V322.538C398.399 325.997 397.253 328.678 394.959 330.579C392.664 332.48 389.506 333.43 385.483 333.43C384.168 333.43 382.789 333.245 381.35 332.872C379.91 332.5 378.531 331.998 377.217 331.37L378.578 325.306C379.721 325.822 380.813 326.208 381.854 326.459C382.895 326.709 384.09 326.834 385.436 326.834C387.128 326.834 388.384 326.486 389.205 325.79C390.027 325.095 390.436 323.995 390.436 322.49V320.453C389.716 321.408 388.881 322.125 387.936 322.612C386.989 323.096 385.904 323.339 384.685 323.339C381.553 323.339 379.126 322.143 377.405 319.748C375.684 317.356 374.822 314.193 374.822 310.263V309.754H374.819ZM382.733 310.263C382.733 312.397 383.034 314.059 383.637 315.248C384.239 316.436 385.26 317.032 386.702 317.032C387.564 317.032 388.303 316.895 388.921 316.619C389.54 316.345 390.044 315.932 390.436 315.382V304.343C390.044 303.712 389.545 303.231 388.933 302.899C388.323 302.567 387.593 302.402 386.749 302.402C385.341 302.402 384.317 303.079 383.683 304.427C383.049 305.778 382.733 307.552 382.733 309.751V310.263Z" fill="#4DAF51"/>
<path d="M414.123 323.337C410.279 323.337 407.267 322.133 405.088 319.723C402.909 317.313 401.819 314.264 401.819 310.577V309.655C401.819 305.646 402.848 302.379 404.902 299.855C406.956 297.334 409.929 296.08 413.82 296.095C417.24 296.095 419.894 297.154 421.777 299.273C423.66 301.391 424.6 304.293 424.6 307.98V312.273H410.068L410.022 312.417C410.147 313.791 410.639 314.903 411.498 315.752C412.358 316.601 413.592 317.024 415.201 317.024C416.716 317.024 417.977 316.895 418.986 316.636C419.995 316.378 421.146 315.965 422.443 315.4L424.341 320.397C423.246 321.221 421.777 321.917 419.934 322.483C418.09 323.053 416.153 323.337 414.123 323.337ZM413.817 302.402C412.551 302.402 411.618 302.818 411.016 303.652C410.414 304.485 410.066 305.613 409.973 307.035L410.019 307.156H416.863V306.525C416.863 305.167 416.633 304.141 416.173 303.444C415.712 302.752 414.926 302.402 413.817 302.402Z" fill="#FFCA29"/>
<path d="M441.965 303.568L439.387 303.543C438.481 303.543 437.739 303.717 437.161 304.065C436.583 304.412 436.152 304.901 435.873 305.532V322.827H427.952V296.581H435.406L435.687 300.438C436.219 299.065 436.921 297.998 437.795 297.238C438.67 296.478 439.693 296.097 440.866 296.097C441.226 296.097 441.547 296.123 441.826 296.171C442.105 296.219 442.404 296.293 442.717 296.389L441.965 303.568Z" fill="#F34538"/>
<path d="M328.594 231.681C328.591 238.862 328.588 246.043 328.584 253.225C328.581 256.088 327.515 257.195 324.748 257.195C311.657 257.198 298.566 257.198 285.471 257.195C282.488 257.195 281.499 256.164 281.495 253.076C281.489 245.947 281.485 238.814 281.479 231.684C281.819 231.639 282.155 231.549 282.495 231.553C283.355 231.567 284.078 231.681 284.085 230.294C284.088 228.911 283.372 229.007 282.505 229.025C282.165 229.031 281.825 228.952 281.485 228.914C281.485 221.071 281.485 213.227 281.492 205.383C281.495 202.268 282.438 201.31 285.478 201.31C298.569 201.31 311.66 201.31 324.752 201.313C327.594 201.313 328.578 202.317 328.578 205.235C328.584 213.13 328.588 221.022 328.591 228.918C328.254 228.952 327.921 229.011 327.584 229.021C326.785 229.045 325.995 228.811 325.971 230.232C325.948 231.67 326.675 231.601 327.591 231.57C327.928 231.556 328.261 231.639 328.594 231.681ZM293.467 231.498C293.483 231.429 293.517 231.37 293.573 231.325C294.12 230.342 295.043 230.853 295.806 230.729C295.826 231.367 296.143 231.577 296.753 231.574C302.269 231.553 307.788 231.553 313.303 231.567C313.91 231.57 314.233 231.367 314.26 230.729C314.983 230.687 315.72 230.835 316.423 230.542C316.493 231.111 316.533 231.605 317.343 231.577C319.163 231.512 320.986 231.543 322.809 231.563C323.429 231.57 323.608 231.346 323.685 230.687C323.832 229.414 323.399 228.894 322.179 229.056C322.259 228.093 321.869 227.693 320.899 227.693C310.321 227.714 299.742 227.717 289.164 227.693C288.191 227.69 287.811 228.097 287.871 229.052C285.838 228.787 286.508 230.332 286.421 231.37C288.761 231.946 291.114 231.694 293.467 231.498ZM305.021 224.292C310.234 224.292 315.45 224.275 320.662 224.306C321.615 224.313 322.232 224.261 322.199 222.961C322.165 221.75 321.892 221.219 320.616 221.253C317.666 221.333 314.713 221.277 311.764 221.277C304.792 221.277 297.819 221.277 290.844 221.281C290.354 221.281 289.857 221.281 289.371 221.322C288.298 221.419 287.754 221.888 287.861 223.161C287.968 224.437 288.744 224.289 289.527 224.289C294.693 224.292 299.859 224.292 305.021 224.292ZM304.971 243.581C310.187 243.581 315.403 243.56 320.616 243.598C321.655 243.605 322.222 243.487 322.205 242.146C322.189 240.849 321.599 240.807 320.652 240.807C310.221 240.828 299.792 240.831 289.361 240.8C288.358 240.797 287.841 240.935 287.848 242.184C287.854 243.384 288.271 243.612 289.321 243.601C294.54 243.556 299.756 243.581 304.971 243.581ZM304.885 217.607C310.204 217.607 315.52 217.583 320.839 217.628C321.869 217.638 322.192 217.311 322.195 216.242C322.199 215.01 321.625 214.831 320.632 214.834C310.194 214.855 299.756 214.862 289.317 214.824C288.254 214.82 287.864 215.065 287.854 216.252C287.844 217.518 288.388 217.632 289.377 217.625C294.547 217.587 299.716 217.607 304.885 217.607ZM304.965 234.381C299.796 234.381 294.623 234.388 289.454 234.374C288.574 234.371 287.834 234.288 287.854 235.654C287.874 236.937 288.401 237.165 289.477 237.161C299.916 237.134 310.354 237.134 320.796 237.161C321.762 237.165 322.199 236.965 322.199 235.83C322.199 234.695 321.885 234.343 320.772 234.357C315.503 234.412 310.234 234.381 304.965 234.381ZM304.955 211.181C310.177 211.181 315.4 211.171 320.622 211.192C321.535 211.195 322.239 211.219 322.195 209.881C322.159 208.729 321.755 208.398 320.692 208.401C310.247 208.429 299.802 208.429 289.357 208.401C288.291 208.398 287.878 208.732 287.861 209.884C287.844 211.05 288.348 211.202 289.287 211.195C294.51 211.164 299.732 211.181 304.955 211.181ZM301.035 250.01C304.918 250.01 308.801 249.982 312.684 250.027C313.75 250.041 314.27 249.862 314.257 248.548C314.243 247.23 313.607 247.23 312.684 247.23C304.918 247.251 297.153 247.254 289.391 247.226C288.428 247.223 287.818 247.285 287.858 248.575C287.894 249.755 288.358 250.031 289.387 250.02C293.27 249.986 297.153 250.01 301.035 250.01Z" fill="#D6D6D6"/>
<path d="M305.021 224.292C299.855 224.292 294.693 224.292 289.527 224.292C288.744 224.292 287.967 224.44 287.861 223.164C287.754 221.891 288.297 221.422 289.37 221.325C289.86 221.281 290.354 221.284 290.844 221.284C297.816 221.281 304.788 221.281 311.764 221.281C314.716 221.281 317.669 221.336 320.615 221.256C321.892 221.222 322.165 221.753 322.198 222.964C322.232 224.264 321.619 224.313 320.662 224.309C315.45 224.275 310.237 224.292 305.021 224.292Z" fill="white"/>
<path d="M304.971 243.58C299.755 243.58 294.54 243.552 289.327 243.601C288.277 243.611 287.857 243.38 287.854 242.183C287.847 240.934 288.364 240.796 289.367 240.8C299.799 240.827 310.227 240.824 320.659 240.807C321.602 240.803 322.195 240.848 322.212 242.145C322.228 243.487 321.662 243.608 320.622 243.597C315.4 243.559 310.187 243.58 304.971 243.58Z" fill="white"/>
<path d="M304.885 217.607C299.715 217.607 294.546 217.586 289.374 217.624C288.384 217.631 287.841 217.514 287.851 216.252C287.861 215.065 288.251 214.82 289.314 214.824C299.752 214.861 310.19 214.855 320.629 214.834C321.619 214.83 322.195 215.01 322.192 216.241C322.188 217.31 321.865 217.635 320.835 217.628C315.52 217.583 310.204 217.607 304.885 217.607Z" fill="white"/>
<path d="M304.965 234.381C310.234 234.381 315.503 234.412 320.772 234.356C321.885 234.346 322.198 234.698 322.198 235.829C322.198 236.964 321.762 237.164 320.795 237.161C310.357 237.133 299.919 237.133 289.477 237.161C288.401 237.164 287.874 236.936 287.854 235.653C287.834 234.284 288.574 234.37 289.454 234.374C294.623 234.387 299.795 234.381 304.965 234.381Z" fill="white"/>
<path d="M304.955 211.181C299.732 211.181 294.51 211.164 289.287 211.195C288.347 211.202 287.841 211.047 287.861 209.884C287.877 208.732 288.291 208.397 289.357 208.401C299.802 208.428 310.247 208.428 320.692 208.401C321.755 208.397 322.155 208.729 322.195 209.881C322.238 211.219 321.535 211.195 320.622 211.191C315.4 211.171 310.177 211.181 304.955 211.181Z" fill="white"/>
<path d="M301.035 250.009C297.153 250.009 293.27 249.985 289.387 250.027C288.357 250.037 287.894 249.761 287.857 248.581C287.817 247.291 288.427 247.229 289.391 247.233C297.156 247.26 304.921 247.257 312.683 247.236C313.607 247.233 314.243 247.233 314.256 248.554C314.27 249.868 313.75 250.047 312.683 250.034C308.801 249.982 304.918 250.009 301.035 250.009Z" fill="white"/>
<path d="M316.423 230.539C315.719 230.828 314.983 230.683 314.26 230.725C314.386 229.414 313.846 229.045 312.567 229.066C307.551 229.148 302.532 229.148 297.516 229.066C296.236 229.045 295.696 229.421 295.806 230.728C295.043 230.856 294.123 230.342 293.573 231.328C293.483 229.114 293.483 229.117 291.357 229.104C290.197 229.097 289.034 229.073 287.874 229.055C287.811 228.1 288.194 227.693 289.167 227.696C299.745 227.717 310.324 227.717 320.902 227.696C321.872 227.693 322.262 228.093 322.182 229.059C320.775 229.073 319.362 229.169 317.966 229.073C316.833 228.99 316.353 229.393 316.423 230.539Z" fill="white"/>
<path d="M323.908 194.959C323.662 193.059 325.068 193.576 326.015 193.418C327.101 193.418 328.188 193.414 329.274 193.414C331.387 193.435 333.5 193.5 335.61 193.462C336.576 193.445 337.016 193.662 336.996 194.801C336.933 198.46 336.966 202.124 336.983 205.787C336.986 206.587 336.93 207.149 335.906 207.135C334.877 207.122 334.54 206.718 334.557 205.673C334.603 202.979 334.507 200.282 334.593 197.588C334.633 196.343 334.22 196.042 333.08 196.077C330.134 196.163 327.184 196.122 324.235 196.132C323.872 195.818 324.025 195.349 323.908 194.959Z" fill="#F44336"/>
<path d="M336.969 258.274C336.966 260.106 336.932 261.941 336.982 263.772C337.009 264.707 336.679 265.011 335.786 265C332.247 264.959 328.704 264.962 325.164 265C324.278 265.011 323.965 264.714 323.945 263.779C323.921 262.731 324.341 262.489 325.264 262.506C327.921 262.551 330.577 262.486 333.23 262.541C334.26 262.562 334.616 262.182 334.596 261.123C334.546 258.426 334.603 255.728 334.566 253.031C334.553 252.072 334.586 251.351 335.823 251.331C337.202 251.31 336.969 252.248 336.972 253.086C336.972 254.814 336.969 256.546 336.969 258.274Z" fill="#F44336"/>
<path d="M279.576 264.697C277.756 264.7 275.933 264.672 274.113 264.71C273.35 264.724 273.07 264.438 273.074 263.645C273.1 259.878 273.114 256.108 273.074 252.341C273.064 251.313 273.547 251.196 274.35 251.193C275.15 251.189 275.503 251.441 275.493 252.327C275.457 255.128 275.52 257.929 275.463 260.73C275.44 261.844 275.763 262.265 276.886 262.234C279.543 262.161 282.199 262.248 284.855 262.189C285.845 262.168 286.111 262.544 286.121 263.517C286.131 264.5 285.742 264.731 284.888 264.71C283.119 264.662 281.349 264.693 279.576 264.697Z" fill="#F44336"/>
<path d="M273.43 207.325C272.777 206.67 273.28 205.78 273.007 205.049C273.13 204.328 273.127 203.607 273 202.886C273.03 200.289 273.103 197.691 273.067 195.097C273.05 194.032 273.38 193.69 274.416 193.704C277.863 193.759 281.309 193.742 284.758 193.704C285.628 193.694 286.131 193.828 286.135 194.925C286.138 195.97 285.738 196.218 284.818 196.201C282.259 196.156 279.696 196.177 277.136 196.201C276.669 196.205 276.139 196.011 275.75 196.477C275.66 196.701 275.48 196.929 275.493 197.146C275.726 200.53 275.076 203.886 275.223 207.266C274.7 207.291 274.173 207.315 273.65 207.339C273.577 207.277 273.507 207.273 273.43 207.325Z" fill="#F44336"/>
<path d="M281.486 228.917C281.826 228.955 282.165 229.035 282.505 229.028C283.369 229.011 284.089 228.914 284.085 230.297C284.082 231.684 283.355 231.57 282.495 231.556C282.159 231.553 281.819 231.639 281.479 231.687C279.083 231.663 276.686 231.587 274.29 231.636C273.277 231.656 273.064 231.246 273.06 230.301C273.06 229.349 273.284 228.942 274.29 228.962C276.69 229.004 279.089 228.938 281.486 228.917Z" fill="#F44336"/>
<path d="M328.594 231.681C328.261 231.639 327.924 231.556 327.595 231.567C326.675 231.598 325.951 231.67 325.975 230.228C325.998 228.807 326.788 229.045 327.588 229.018C327.924 229.007 328.258 228.952 328.594 228.914C330.947 228.938 333.3 229.001 335.653 228.963C336.696 228.945 336.983 229.363 337 230.401C337.016 231.501 336.526 231.625 335.657 231.619C333.304 231.601 330.951 231.656 328.594 231.681Z" fill="#F44336"/>
<path d="M295.803 230.725C295.693 229.418 296.236 229.042 297.513 229.063C302.528 229.145 307.548 229.149 312.564 229.063C313.843 229.042 314.383 229.411 314.257 230.722C314.23 231.36 313.907 231.563 313.3 231.56C307.784 231.543 302.265 231.546 296.749 231.567C296.14 231.574 295.823 231.367 295.803 230.725Z" fill="#F44336"/>
<path d="M316.423 230.539C316.353 229.394 316.836 228.987 317.963 229.066C319.363 229.162 320.772 229.066 322.179 229.052C323.399 228.89 323.832 229.414 323.685 230.687C323.609 231.342 323.429 231.57 322.809 231.563C320.986 231.539 319.163 231.511 317.343 231.577C316.533 231.605 316.493 231.108 316.423 230.539Z" fill="#F44336"/>
<path d="M287.871 229.052C289.031 229.069 290.194 229.094 291.354 229.101C293.48 229.114 293.48 229.107 293.57 231.325C293.517 231.37 293.48 231.425 293.467 231.494C291.121 231.453 288.771 231.412 286.425 231.37C286.508 230.332 285.838 228.79 287.871 229.052Z" fill="#F44336"/>
<circle opacity="0.8" cx="166.5" cy="211.5" r="22.5" fill="#FFCA29"/>
<circle opacity="0.8" cx="167" cy="492" r="82" fill="#4DAF51"/>
<circle opacity="0.8" cx="427.5" cy="430.5" r="41.5" fill="#F44336"/>
<circle opacity="0.8" cx="138" cy="108" r="53" fill="#F44336"/>
<circle opacity="0.8" cx="471" cy="216" r="43" fill="#4385F4"/>
<circle opacity="0.8" cx="431.5" cy="237.5" r="23.5" fill="#4385F4"/>
</svg>
